<?xml version="1.0" encoding="UTF-8" standalone="no"?>
<!DOCTYPE svg PUBLIC "-//W3C//DTD SVG 1.1//EN"
 "http://www.w3.org/Graphics/SVG/1.1/DTD/svg11.dtd">
<!-- Generated by graphviz version 2.42.4 (0)
 -->
<!-- Title: OrderProof Pages: 1 -->
<svg width="1563pt" height="780pt"
 viewBox="0.00 0.00 1563.30 779.80" xmlns="http://www.w3.org/2000/svg" xmlns:xlink="http://www.w3.org/1999/xlink">
<g id="graph0" class="graph" transform="scale(1 1) rotate(0) translate(32.4 747.4)">
<title>OrderProof</title>
<polygon fill="#f4f7f5" stroke="transparent" points="-32.4,32.4 -32.4,-747.4 1530.9,-747.4 1530.9,32.4 -32.4,32.4"/>
<text text-anchor="middle" x="749.25" y="-691.8" font-family="DejaVu Sans" font-size="24.00" fill="#173f31">OrderProof &#160;| &#160;AWS architecture</text>
<g id="clust1" class="cluster">
<title>cluster_channels</title>
<path fill="#f4f7f5" stroke="#dce7df" d="M272,-560C272,-560 1209,-560 1209,-560 1215,-560 1221,-566 1221,-572 1221,-572 1221,-661 1221,-661 1221,-667 1215,-673 1209,-673 1209,-673 272,-673 272,-673 266,-673 260,-667 260,-661 260,-661 260,-572 260,-572 260,-566 266,-560 272,-560"/>
<text text-anchor="middle" x="740.5" y="-659.4" font-family="DejaVu Sans" font-size="12.00" fill="#173f31">CUSTOMER &amp; BUSINESS EXPERIENCES</text>
</g>
<g id="clust2" class="cluster">
<title>cluster_records</title>
<path fill="#f4f7f5" stroke="#dce7df" d="M20,-8C20,-8 857,-8 857,-8 863,-8 869,-14 869,-20 869,-20 869,-124 869,-124 869,-130 863,-136 857,-136 857,-136 20,-136 20,-136 14,-136 8,-130 8,-124 8,-124 8,-20 8,-20 8,-14 14,-8 20,-8"/>
<text text-anchor="middle" x="438.5" y="-122.4" font-family="DejaVu Sans" font-size="12.00" fill="#173f31">PRIVATE APPLICATION DATA · us&#45;east&#45;1</text>
</g>
<!-- website -->
<g id="node1" class="node">
<title>website</title>
<path fill="#ffffff" stroke="#c9dcd0" stroke-width="1.4" d="M439.5,-634C439.5,-634 290.5,-634 290.5,-634 284.5,-634 278.5,-628 278.5,-622 278.5,-622 278.5,-590 278.5,-590 278.5,-584 284.5,-578 290.5,-578 290.5,-578 439.5,-578 439.5,-578 445.5,-578 451.5,-584 451.5,-590 451.5,-590 451.5,-622 451.5,-622 451.5,-628 445.5,-634 439.5,-634"/>
<text text-anchor="middle" x="365" y="-609.8" font-family="DejaVu Sans" font-size="14.00" fill="#20352b">Website / React</text>
<text text-anchor="middle" x="365" y="-594.8" font-family="DejaVu Sans" font-size="14.00" fill="#20352b">Isolated chat widget</text>
</g>
<!-- api -->
<g id="node6" class="node">
<title>api</title>
<path fill="#dceee3" stroke="#245e4c" stroke-width="1.4" d="M867.5,-399C867.5,-399 592.5,-399 592.5,-399 586.5,-399 580.5,-393 580.5,-387 580.5,-387 580.5,-340 580.5,-340 580.5,-334 586.5,-328 592.5,-328 592.5,-328 867.5,-328 867.5,-328 873.5,-328 879.5,-334 879.5,-340 879.5,-340 879.5,-387 879.5,-387 879.5,-393 873.5,-399 867.5,-399"/>
<text text-anchor="middle" x="730" y="-374.8" font-family="DejaVu Sans" font-size="14.00" fill="#20352b">Amazon API Gateway</text>
<text text-anchor="middle" x="730" y="-359.8" font-family="DejaVu Sans" font-size="14.00" fill="#20352b">HTTPS · JWT&#45;protected owner routes</text>
<text text-anchor="middle" x="730" y="-344.8" font-family="DejaVu Sans" font-size="14.00" fill="#20352b">Conversation&#45;scoped customer tokens</text>
</g>
<!-- website&#45;&gt;api -->
<g id="edge1" class="edge">
<title>website&#45;&gt;api</title>
<path fill="none" stroke="#6b8f7a" stroke-width="1.5" d="M406.16,-577.88C470.99,-535.16 597.13,-452.05 671.4,-403.11"/>
<polygon fill="#6b8f7a" stroke="#6b8f7a" stroke-width="1.5" points="673.04,-404.96 677.54,-399.07 670.35,-400.87 673.04,-404.96"/>
</g>
<!-- mobile -->
<g id="node2" class="node">
<title>mobile</title>
<path fill="#ffffff" stroke="#c9dcd0" stroke-width="1.4" d="M690.5,-634C690.5,-634 495.5,-634 495.5,-634 489.5,-634 483.5,-628 483.5,-622 483.5,-622 483.5,-590 483.5,-590 483.5,-584 489.5,-578 495.5,-578 495.5,-578 690.5,-578 690.5,-578 696.5,-578 702.5,-584 702.5,-590 702.5,-590 702.5,-622 702.5,-622 702.5,-628 696.5,-634 690.5,-634"/>
<text text-anchor="middle" x="593" y="-609.8" font-family="DejaVu Sans" font-size="14.00" fill="#20352b">iOS / Android</text>
<text text-anchor="middle" x="593" y="-594.8" font-family="DejaVu Sans" font-size="14.00" fill="#20352b">Hosted WebView examples</text>
</g>
<!-- mobile&#45;&gt;api -->
<g id="edge2" class="edge">
<title>mobile&#45;&gt;api</title>
<path fill="none" stroke="#6b8f7a" stroke-width="1.5" d="M608.45,-577.88C632.41,-535.82 678.67,-454.6 706.7,-405.4"/>
<polygon fill="#6b8f7a" stroke="#6b8f7a" stroke-width="1.5" points="708.86,-406.56 710.19,-399.27 704.6,-404.14 708.86,-406.56"/>
</g>
<!-- standalone -->
<g id="node3" class="node">
<title>standalone</title>
<path fill="#ffffff" stroke="#c9dcd0" stroke-width="1.4" d="M933.5,-634C933.5,-634 746.5,-634 746.5,-634 740.5,-634 734.5,-628 734.5,-622 734.5,-622 734.5,-590 734.5,-590 734.5,-584 740.5,-578 746.5,-578 746.5,-578 933.5,-578 933.5,-578 939.5,-578 945.5,-584 945.5,-590 945.5,-590 945.5,-622 945.5,-622 945.5,-628 939.5,-634 933.5,-634"/>
<text text-anchor="middle" x="840" y="-609.8" font-family="DejaVu Sans" font-size="14.00" fill="#20352b">Hosted support page</text>
<text text-anchor="middle" x="840" y="-594.8" font-family="DejaVu Sans" font-size="14.00" fill="#20352b">Native / server API clients</text>
</g>
<!-- standalone&#45;&gt;api -->
<g id="edge3" class="edge">
<title>standalone&#45;&gt;api</title>
<path fill="none" stroke="#6b8f7a" stroke-width="1.5" d="M809.89,-577.66C793.65,-561.29 774.61,-539.21 763,-516 745.72,-481.45 737.44,-438.04 733.51,-406.55"/>
<polygon fill="#6b8f7a" stroke="#6b8f7a" stroke-width="1.5" points="735.89,-405.88 732.64,-399.21 731.03,-406.45 735.89,-405.88"/>
</g>
<!-- owner -->
<g id="node4" class="node">
<title>owner</title>
<path fill="#e5f0e9" stroke="#c9dcd0" stroke-width="1.4" d="M1190.5,-634C1190.5,-634 989.5,-634 989.5,-634 983.5,-634 977.5,-628 977.5,-622 977.5,-622 977.5,-590 977.5,-590 977.5,-584 983.5,-578 989.5,-578 989.5,-578 1190.5,-578 1190.5,-578 1196.5,-578 1202.5,-584 1202.5,-590 1202.5,-590 1202.5,-622 1202.5,-622 1202.5,-628 1196.5,-634 1190.5,-634"/>
<text text-anchor="middle" x="1090" y="-609.8" font-family="DejaVu Sans" font-size="14.00" fill="#20352b">Business workspace</text>
<text text-anchor="middle" x="1090" y="-594.8" font-family="DejaVu Sans" font-size="14.00" fill="#20352b">Knowledge · inbox · records</text>
</g>
<!-- cognito -->
<g id="node5" class="node">
<title>cognito</title>
<path fill="#e5f0e9" stroke="#c9dcd0" stroke-width="1.4" d="M1029,-516C1029,-516 791,-516 791,-516 785,-516 779,-510 779,-504 779,-504 779,-472 779,-472 779,-466 785,-460 791,-460 791,-460 1029,-460 1029,-460 1035,-460 1041,-466 1041,-472 1041,-472 1041,-504 1041,-504 1041,-510 1035,-516 1029,-516"/>
<text text-anchor="middle" x="910" y="-491.8" font-family="DejaVu Sans" font-size="14.00" fill="#20352b">Amazon Cognito</text>
<text text-anchor="middle" x="910" y="-476.8" font-family="DejaVu Sans" font-size="14.00" fill="#20352b">Business sign&#45;in + verified email</text>
</g>
<!-- owner&#45;&gt;cognito -->
<g id="edge5" class="edge">
<title>owner&#45;&gt;cognito</title>
<path fill="none" stroke="#6b8f7a" stroke-width="1.5" d="M1047.8,-577.8C1020.94,-560.5 986.09,-538.03 958.15,-520.03"/>
<polygon fill="#6b8f7a" stroke="#6b8f7a" stroke-width="1.5" points="959.15,-517.76 951.94,-516.03 956.49,-521.88 959.15,-517.76"/>
<text text-anchor="middle" x="1021.5" y="-544" font-family="DejaVu Sans" font-size="10.00" fill="#53675d">sign in</text>
</g>
<!-- owner&#45;&gt;api -->
<g id="edge4" class="edge">
<title>owner&#45;&gt;api</title>
<path fill="none" stroke="#6b8f7a" stroke-width="1.5" d="M1091.51,-577.72C1091.76,-545.41 1087.08,-491.96 1057,-460 1012.99,-413.25 947.5,-388.97 886.66,-376.52"/>
<polygon fill="#6b8f7a" stroke="#6b8f7a" stroke-width="1.5" points="886.99,-374.09 879.65,-375.13 886.04,-378.9 886.99,-374.09"/>
</g>
<!-- cognito&#45;&gt;api -->
<g id="edge6" class="edge">
<title>cognito&#45;&gt;api</title>
<path fill="none" stroke="#6b8f7a" stroke-width="1.5" stroke-dasharray="5,2" d="M870.05,-459.81C845.59,-443.17 813.91,-421.6 786.86,-403.2"/>
<polygon fill="#6b8f7a" stroke="#6b8f7a" stroke-width="1.5" points="787.97,-400.99 780.81,-399.08 785.22,-405.04 787.97,-400.99"/>
<text text-anchor="middle" x="865.5" y="-427" font-family="DejaVu Sans" font-size="10.00" fill="#53675d">JWT validation</text>
</g>
<!-- app -->
<g id="node7" class="node">
<title>app</title>
<path fill="#245e4c" stroke="#245e4c" stroke-width="2" d="M863.5,-277C863.5,-277 596.5,-277 596.5,-277 590.5,-277 584.5,-271 584.5,-265 584.5,-265 584.5,-203 584.5,-203 584.5,-197 590.5,-191 596.5,-191 596.5,-191 863.5,-191 863.5,-191 869.5,-191 875.5,-197 875.5,-203 875.5,-203 875.5,-265 875.5,-265 875.5,-271 869.5,-277 863.5,-277"/>
<text text-anchor="middle" x="730" y="-252.8" font-family="DejaVu Sans" font-size="14.00" fill="#ffffff">AWS Lambda · Python</text>
<text text-anchor="middle" x="730" y="-237.8" font-family="DejaVu Sans" font-size="14.00" fill="#ffffff">Tenant authorization + trial limits</text>
<text text-anchor="middle" x="730" y="-222.8" font-family="DejaVu Sans" font-size="14.00" fill="#ffffff">Approved&#45;passage retrieval</text>
<text text-anchor="middle" x="730" y="-207.8" font-family="DejaVu Sans" font-size="14.00" fill="#ffffff">Human handoff + event transactions</text>
</g>
<!-- api&#45;&gt;app -->
<g id="edge7" class="edge">
<title>api&#45;&gt;app</title>
<path fill="none" stroke="#6b8f7a" stroke-width="1.5" d="M730,-328C730,-314.56 730,-298.91 730,-284.33"/>
<polygon fill="#6b8f7a" stroke="#6b8f7a" stroke-width="1.5" points="732.45,-284.26 730,-277.26 727.55,-284.26 732.45,-284.26"/>
</g>
<!-- metadata -->
<g id="node8" class="node">
<title>metadata</title>
<path fill="#ffffff" stroke="#c9dcd0" stroke-width="1.4" d="M308,-97C308,-97 38,-97 38,-97 32,-97 26,-91 26,-85 26,-85 26,-38 26,-38 26,-32 32,-26 38,-26 38,-26 308,-26 308,-26 314,-26 320,-32 320,-38 320,-38 320,-85 320,-85 320,-91 314,-97 308,-97"/>
<text text-anchor="middle" x="173" y="-72.8" font-family="DejaVu Sans" font-size="14.00" fill="#20352b">Amazon DynamoDB</text>
<text text-anchor="middle" x="173" y="-57.8" font-family="DejaVu Sans" font-size="14.00" fill="#20352b">Business profiles + approved sources</text>
<text text-anchor="middle" x="173" y="-42.8" font-family="DejaVu Sans" font-size="14.00" fill="#20352b">Conversation state + usage limits</text>
</g>
<!-- app&#45;&gt;metadata -->
<g id="edge8" class="edge">
<title>app&#45;&gt;metadata</title>
<path fill="none" stroke="#6b8f7a" stroke-width="1.5" d="M584.07,-203.74C509,-187.01 416.57,-163.82 336,-136 306.8,-125.92 275.67,-112.56 248.52,-100.01"/>
<polygon fill="#6b8f7a" stroke="#6b8f7a" stroke-width="1.5" points="249.45,-97.74 242.07,-97.01 247.38,-102.18 249.45,-97.74"/>
<text text-anchor="middle" x="487.5" y="-152.5" font-family="DejaVu Sans" font-size="10.00" fill="#53675d">tenant&#45;scoped lookups</text>
</g>
<!-- events -->
<g id="node9" class="node">
<title>events</title>
<path fill="#ffffff" stroke="#c9dcd0" stroke-width="1.4" d="M565.5,-97C565.5,-97 364.5,-97 364.5,-97 358.5,-97 352.5,-91 352.5,-85 352.5,-85 352.5,-38 352.5,-38 352.5,-32 358.5,-26 364.5,-26 364.5,-26 565.5,-26 565.5,-26 571.5,-26 577.5,-32 577.5,-38 577.5,-38 577.5,-85 577.5,-85 577.5,-91 571.5,-97 565.5,-97"/>
<text text-anchor="middle" x="465" y="-72.8" font-family="DejaVu Sans" font-size="14.00" fill="#20352b">Amazon DynamoDB</text>
<text text-anchor="middle" x="465" y="-57.8" font-family="DejaVu Sans" font-size="14.00" fill="#20352b">Append&#45;only event API</text>
<text text-anchor="middle" x="465" y="-42.8" font-family="DejaVu Sans" font-size="14.00" fill="#20352b">Sequence + SHA&#45;256 chain</text>
</g>
<!-- app&#45;&gt;events -->
<g id="edge9" class="edge">
<title>app&#45;&gt;events</title>
<path fill="none" stroke="#6b8f7a" stroke-width="1.5" d="M664.49,-190.85C621.69,-163.31 566.23,-127.63 524.65,-100.88"/>
<polygon fill="#6b8f7a" stroke="#6b8f7a" stroke-width="1.5" points="525.84,-98.73 518.62,-97 523.19,-102.85 525.84,-98.73"/>
<text text-anchor="middle" x="657.5" y="-152.5" font-family="DejaVu Sans" font-size="10.00" fill="#53675d">atomic append</text>
</g>
<!-- archive -->
<g id="node10" class="node">
<title>archive</title>
<path fill="#ffffff" stroke="#c9dcd0" stroke-width="1.4" d="M838.5,-97C838.5,-97 621.5,-97 621.5,-97 615.5,-97 609.5,-91 609.5,-85 609.5,-85 609.5,-38 609.5,-38 609.5,-32 615.5,-26 621.5,-26 621.5,-26 838.5,-26 838.5,-26 844.5,-26 850.5,-32 850.5,-38 850.5,-38 850.5,-85 850.5,-85 850.5,-91 844.5,-97 838.5,-97"/>
<text text-anchor="middle" x="730" y="-72.8" font-family="DejaVu Sans" font-size="14.00" fill="#20352b">Amazon S3</text>
<text text-anchor="middle" x="730" y="-57.8" font-family="DejaVu Sans" font-size="14.00" fill="#20352b">Closed transcript versions</text>
<text text-anchor="middle" x="730" y="-42.8" font-family="DejaVu Sans" font-size="14.00" fill="#20352b">30&#45;day governance protection</text>
</g>
<!-- app&#45;&gt;archive -->
<g id="edge10" class="edge">
<title>app&#45;&gt;archive</title>
<path fill="none" stroke="#6b8f7a" stroke-width="1.5" d="M730,-190.85C730,-164.44 730,-130.54 730,-104.21"/>
<polygon fill="#6b8f7a" stroke="#6b8f7a" stroke-width="1.5" points="732.45,-104 730,-97 727.55,-104 732.45,-104"/>
<text text-anchor="middle" x="761.5" y="-152.5" font-family="DejaVu Sans" font-size="10.00" fill="#53675d">seal + verify</text>
</g>
<!-- bedrock -->
<g id="node11" class="node">
<title>bedrock</title>
<path fill="#fff1d7" stroke="#c08a36" stroke-width="1.4" d="M1163.5,-97C1163.5,-97 898.5,-97 898.5,-97 892.5,-97 886.5,-91 886.5,-85 886.5,-85 886.5,-38 886.5,-38 886.5,-32 892.5,-26 898.5,-26 898.5,-26 1163.5,-26 1163.5,-26 1169.5,-26 1175.5,-32 1175.5,-38 1175.5,-38 1175.5,-85 1175.5,-85 1175.5,-91 1169.5,-97 1163.5,-97"/>
<text text-anchor="middle" x="1031" y="-72.8" font-family="DejaVu Sans" font-size="14.00" fill="#765015">Amazon Bedrock · Nova Lite</text>
<text text-anchor="middle" x="1031" y="-57.8" font-family="DejaVu Sans" font-size="14.00" fill="#765015">us&#45;west&#45;2</text>
<text text-anchor="middle" x="1031" y="-42.8" font-family="DejaVu Sans" font-size="14.00" fill="#765015">LIVE GENERATION: QUOTA BLOCKED</text>
</g>
<!-- app&#45;&gt;bedrock -->
<g id="edge11" class="edge">
<title>app&#45;&gt;bedrock</title>
<path fill="none" stroke="#c08a36" stroke-width="1.5" stroke-dasharray="5,2" d="M804.4,-190.85C853.22,-163.2 916.53,-127.34 963.82,-100.55"/>
<polygon fill="#c08a36" stroke="#c08a36" stroke-width="1.5" points="965.21,-102.58 970.09,-97 962.79,-98.32 965.21,-102.58"/>
<text text-anchor="middle" x="927" y="-158" font-family="DejaVu Sans" font-size="10.00" fill="#53675d">retrieved passages</text>
<text text-anchor="middle" x="927" y="-147" font-family="DejaVu Sans" font-size="10.00" fill="#53675d">+ recent context</text>
</g>
<!-- ses -->
<g id="node12" class="node">
<title>ses</title>
<path fill="#edf0f5" stroke="#a0adbe" stroke-width="1.4" d="M1486.5,-97C1486.5,-97 1219.5,-97 1219.5,-97 1213.5,-97 1207.5,-91 1207.5,-85 1207.5,-85 1207.5,-38 1207.5,-38 1207.5,-32 1213.5,-26 1219.5,-26 1219.5,-26 1486.5,-26 1486.5,-26 1492.5,-26 1498.5,-32 1498.5,-38 1498.5,-38 1498.5,-85 1498.5,-85 1498.5,-91 1492.5,-97 1486.5,-97"/>
<text text-anchor="middle" x="1353" y="-72.8" font-family="DejaVu Sans" font-size="14.00" fill="#49596e">Amazon SES</text>
<text text-anchor="middle" x="1353" y="-57.8" font-family="DejaVu Sans" font-size="14.00" fill="#49596e">Branded transactional notices</text>
<text text-anchor="middle" x="1353" y="-42.8" font-family="DejaVu Sans" font-size="14.00" fill="#49596e">PREPARED: SENDER SETUP PENDING</text>
</g>
<!-- app&#45;&gt;ses -->
<g id="edge12" class="edge">
<title>app&#45;&gt;ses</title>
<path fill="none" stroke="#a0adbe" stroke-width="1.5" stroke-dasharray="5,2" d="M875.76,-210.92C967.79,-194.89 1088.45,-170.04 1192,-136 1221.46,-126.32 1252.71,-112.85 1279.76,-100.08"/>
<polygon fill="#a0adbe" stroke="#a0adbe" stroke-width="1.5" points="1280.91,-102.25 1286.18,-97.03 1278.81,-97.82 1280.91,-102.25"/>
<text text-anchor="middle" x="1211.5" y="-158" font-family="DejaVu Sans" font-size="10.00" fill="#53675d">verified owner + opt&#45;in</text>
<text text-anchor="middle" x="1211.5" y="-147" font-family="DejaVu Sans" font-size="10.00" fill="#53675d">no chat body in email</text>
</g>
</g>
</svg>
